<svg width="800" height="600" xmlns="http://www.w3.org/2000/svg">
 <!-- Created with Method Draw - http://github.com/duopixel/Method-Draw/ -->

 <g>
  <title>background</title>
  <rect fill="#fff" id="canvas_background" height="602" width="802" y="-1" x="-1"/>
  <g display="none" overflow="visible" y="0" x="0" height="100%" width="100%" id="canvasGrid">
   <rect fill="url(#gridpattern)" stroke-width="0" y="0" x="0" height="100%" width="100%"/>
  </g>
 </g>
 <g>
  <title>Layer 1</title>
  <g fill="#fff" id="svg_5">
   <path fill="#FFE2FF" id="svg_4" d="m400.000305,260.9375c-21.455287,0 -39.0625,17.607213 -39.0625,39.0625c0,18.308759 12.847185,34.940244 29.907227,39.0625l0,-12.923479c-1.690387,0.370145 -3.246069,0.380873 -4.966855,-0.126363c-2.308488,-0.681281 -4.184247,-2.219081 -5.576611,-4.563927c-0.887512,-1.497269 -2.46048,-3.1209 -4.101395,-3.001691l-0.402332,-4.559755c3.548265,-0.303984 6.617903,2.161861 8.440018,5.223155c0.809431,1.361369 1.741052,2.159476 2.93672,2.512335c1.155734,0.340343 2.396703,0.177026 3.842712,-0.333786c0.362991,-2.894997 1.689195,-3.97861 2.69115,-5.504489l0,-0.002383c-10.174513,-1.517534 -14.229417,-6.915331 -15.838744,-11.175871c-2.132654,-5.657077 -0.988245,-12.724399 2.782942,-17.190576c0.073312,-0.087022 0.205635,-0.314713 0.154375,-0.473856c-1.729131,-5.223155 0.377895,-9.543896 0.45538,-10.002257c1.995563,0.590086 2.319812,-0.593661 8.668303,3.263354l1.097322,0.659229c0.458955,0.273584 0.314713,0.117421 0.773668,0.082849c2.65062,-0.720024 5.444885,-1.117586 8.198022,-1.153349c2.774001,0.035764 5.550385,0.433325 8.310677,1.182556l0.355243,0.035764c-0.030994,-0.004768 0.096561,-0.02265 0.310541,-0.150204c7.930399,-4.803539 7.645488,-3.233553 9.772182,-3.924966c0.076889,0.458957 2.155899,4.850031 0.445247,10.007025c-0.23067,0.710487 6.875395,7.217526 2.93672,17.662643c-1.609325,4.262329 -5.663634,9.660126 -15.838145,11.17766l0,0.002383c1.304149,1.987816 2.871155,3.045201 2.86281,7.146001l0,16.131998c17.060638,-4.122256 29.907227,-20.753741 29.907227,-39.0625c0.000597,-21.455287 -17.606615,-39.0625 -39.061903,-39.0625zm0,0"/>
  </g>
 </g>
</svg>